<?xml version="1.0" encoding="utf-8"?>
<svg version="1.1" id="Layer_1" xmlns="http://www.w3.org/2000/svg" xmlns:xlink="http://www.w3.org/1999/xlink" x="0px" y="0px"
	 viewBox="0 0 441.4 441.7" enable-background="new 0 0 441.4 441.7" xml:space="preserve">
<g>
	<g>
		<path d="M0,441.7C0,294.6,0,147.4,0,0c146.9,0,294,0,441.4,0c0,147.1,0,294.4,0,441.7
			C294.5,441.7,147.3,441.7,0,441.7z M297.1,250.2c12.6,37.3,3.7,71.1-11.2,108.3c22.2-15.8,34.4-33.2,41.7-60
			c11.1,18.2,20,32.7,31.6,51.8c-8.1,8.2-18.6,21.7-31.9,31.6c-21.9,16.3-47.7,23.8-74.8,27.8c-6.8,1-18.5,8.5-18.1,12.1
			c1.1,10.8,12,10,20,8.2c16.6-3.8,33.7-7.1,49.3-13.8c78.2-33.6,124.9-93.5,131.5-178.1c7.2-91.9-34.5-160.6-114.7-205.5
			c-33.6-18.8-76.3-13.6-101,11.5c-4.6,4.7-8,14.4-6.4,20.2c1.3,4.8,11.7,11.2,16.5,10.1c6.5-1.5,11.8-9.2,17.1-14.8
			c3.4-3.5,5.1-9.8,9-11.5c29.2-12.8,67.5,2.4,81.1,31.4c14,29.9,1.6,63.9-28.9,79.8c-28.5,14.8-68.1,3.5-83.5-24.4
			c-1.8-3.2-1.5-9.7,0.6-12.6c5.4-7.6,7.3-15.3-0.4-20.7c-5.6-3.9-15.7-7.4-20.5-4.8c-5.7,3-11.7,13-11.1,19.3
			c3.6,37.7,39.7,71.4,77.7,71.3c16.5,0,33.6-4.9,49.4-10.4c17.2-5.9,34.7-6.5,38.6,3.8c10.1,26.4,10.9,53.6,1.1,80.4
			c-3.9,10.5-10.6,12.6-20.3,4.4C328,256.3,315.3,249,297.1,250.2z M82.1,93.1c9.8-20.8,37.9-43.5,69.1-52
			c15.5-4.3,31.4-7.1,46.8-11.7c3.5-1,5.7-6.6,8.5-10.1c-3.6-2.7-7.2-7.7-10.9-7.8c-9.2-0.1-18.5,1.3-27.5,3.5
			C67.4,40.3-9.8,131.1,6.9,252.8c10,72.9,52.4,125.1,117.5,158.8c31.6,16.3,77.9,8.8,98.7-16.5c3.8-4.5,5.5-14.1,3.3-19.2
			c-2-4.7-11.5-9.8-16.3-8.6c-6.1,1.5-11,8.8-15.8,14.1c-2.6,2.9-3,8.8-5.9,10.1c-21.6,9.9-43.1,8.7-63-4.4
			c-19.4-12.8-29.6-31.8-27.5-55c2.4-27.1,21.7-47.7,48.3-54.8c23.7-6.3,50.3,3.8,66.3,24.5c5.2,6.8,7.5,11.9,2.1,20.8
			c-2.7,4.5-0.3,15.7,3.8,19.8c3.8,3.8,13.7,4.3,19.6,2.3c9.9-3.3,10.9-12.8,9.3-22.2c-7.2-43.1-52.5-75.6-95.5-67.6
			c-12.3,2.3-24,7.8-36.1,11.3c-11.5,3.4-25.9,10.5-32.8-4c-12.8-26.6-13.6-54.8-1.5-82.5c4.3-9.8,9.9-10.7,19.5-4
			c11.6,8.1,25.1,13.4,37.8,19.9c1.2-0.9,2.4-1.9,3.6-2.8c-9.1-36.8-4.7-72.1,11.2-106.3c-1.9-0.9-3.8-1.8-5.7-2.7
			c-12.4,17.5-24.8,35-38.6,54.5C101.5,125.3,92.9,111,82.1,93.1z M277.5,135.4c19.8,0.1,34.2-13.5,33.9-32.2
			c-0.2-17.3-15.5-32.4-33.2-32.7c-18-0.3-34,15.5-33.9,33.3C244.4,121.7,258.7,135.3,277.5,135.4z M195.5,337.9
			c-0.2-18.1-14.5-31.9-33.2-31.9c-18.7,0-32.9,13.9-32.9,32.2c-0.1,18.9,15,33.4,33.9,32.7C182.1,370.3,195.7,356.3,195.5,337.9z"
			/>
		<path fill="#0099FF" d="M297.1,250.2c18.2-1.2,30.9,6.1,42.1,15.5c9.8,8.2,16.5,6.1,20.3-4.4c9.9-26.8,9-53.9-1.1-80.4
			c-3.9-10.2-21.4-9.7-38.6-3.8c-15.9,5.5-32.9,10.4-49.4,10.4c-38,0.1-74.1-33.6-77.7-71.3c-0.6-6.3,5.4-16.3,11.1-19.3
			c4.8-2.5,14.9,0.9,20.5,4.8c7.7,5.4,5.8,13.1,0.4,20.7c-2.1,3-2.4,9.4-0.6,12.6c15.4,27.9,55,39.2,83.5,24.4
			c30.6-15.8,42.9-49.9,28.9-79.8c-13.6-29-51.9-44.1-81.1-31.4c-3.9,1.7-5.6,8-9,11.5c-5.3,5.5-10.6,13.3-17.1,14.8
			c-4.8,1.1-15.2-5.3-16.5-10.1c-1.6-5.9,1.8-15.5,6.4-20.2c24.7-25.1,67.4-30.2,101-11.5c80.2,44.8,121.9,113.6,114.7,205.5
			c-6.7,84.6-53.3,144.4-131.5,178.1c-15.5,6.7-32.6,10-49.3,13.8c-8,1.8-18.9,2.6-20-8.2c-0.4-3.6,11.3-11.1,18.1-12.1
			c27.1-4,52.9-11.6,74.8-27.8c13.3-9.9,23.9-23.5,31.9-31.6c-11.7-19.1-20.5-33.7-31.6-51.8c-7.3,26.8-19.6,44.2-41.7,60
			C300.8,321.3,309.7,287.5,297.1,250.2z"/>
		<path fill="#0099FF" d="M82.1,93.1c10.8,18,19.4,32.2,27.2,45.2c13.8-19.5,26.2-37,38.6-54.5c1.9,0.9,3.8,1.8,5.7,2.7
			c-15.8,34.2-20.3,69.5-11.2,106.3c-1.2,0.9-2.4,1.9-3.6,2.8c-12.7-6.5-26.3-11.8-37.8-19.9c-9.5-6.7-15.2-5.8-19.5,4
			c-12.1,27.6-11.3,55.9,1.5,82.5c7,14.5,21.3,7.4,32.8,4c12.1-3.6,23.8-9,36.1-11.3c43-8,88.3,24.6,95.5,67.6
			c1.6,9.4,0.6,19-9.3,22.2c-5.9,2-15.9,1.5-19.6-2.3c-4.1-4.1-6.6-15.3-3.8-19.8c5.4-8.8,3.1-14-2.1-20.8
			c-15.9-20.8-42.6-30.8-66.3-24.5c-26.6,7.1-45.9,27.7-48.3,54.8c-2.1,23.3,8.1,42.2,27.5,55c19.8,13.1,41.4,14.2,63,4.4
			c2.9-1.3,3.3-7.2,5.9-10.1c4.8-5.3,9.7-12.6,15.8-14.1c4.7-1.2,14.2,4,16.3,8.6c2.2,5.1,0.4,14.7-3.3,19.2
			c-20.9,25.3-67.2,32.8-98.7,16.5C59.3,377.9,16.9,325.7,6.9,252.8C-9.8,131.1,67.4,40.3,168.1,15c8.9-2.2,18.3-3.6,27.5-3.5
			c3.6,0,7.2,5,10.9,7.8c-2.8,3.5-5,9-8.5,10.1c-15.4,4.6-31.3,7.4-46.8,11.7C120.1,49.6,91.9,72.3,82.1,93.1z"/>
		<path fill="#0099FF" d="M277.5,135.4c-18.7-0.1-33.1-13.8-33.2-31.6c-0.1-17.8,16-33.6,33.9-33.3c17.7,0.3,33,15.4,33.2,32.7
			C311.6,121.9,297.3,135.6,277.5,135.4z"/>
		<path fill="#0099FF" d="M195.5,337.9c0.2,18.4-13.4,32.4-32.2,33c-19,0.6-34-13.8-33.9-32.7c0.1-18.3,14.2-32.1,32.9-32.2
			C181,306,195.3,319.8,195.5,337.9z"/>
	</g>
</g>
</svg>
